<svg width="245" height="51" viewBox="0 0 245 51" fill="none" xmlns="http://www.w3.org/2000/svg">
<path d="M27.4124 16.9994C27.2704 15.8002 26.6945 14.8693 25.6847 14.2066C24.6749 13.544 23.4363 13.2126 21.969 13.2126C20.8961 13.2126 19.9573 13.3862 19.1526 13.7333C18.3558 14.0804 17.7326 14.5577 17.2829 15.1652C16.8411 15.7726 16.6202 16.4629 16.6202 17.236C16.6202 17.8829 16.774 18.4391 17.0817 18.9046C17.3973 19.3621 17.7996 19.7447 18.2887 20.0524C18.7779 20.3522 19.2906 20.6007 19.8271 20.7979C20.3635 20.9873 20.8566 21.1411 21.3063 21.2594L23.7677 21.9221C24.3988 22.0878 25.1009 22.3166 25.874 22.6085C26.6551 22.9004 27.4006 23.2988 28.1106 23.8037C28.8285 24.3007 29.4202 24.9397 29.8856 25.7207C30.3511 26.5017 30.5838 27.4602 30.5838 28.5962C30.5838 29.9058 30.2406 31.0892 29.5543 32.1463C28.8758 33.2034 27.8818 34.0436 26.5722 34.6669C25.2705 35.2901 23.6888 35.6017 21.827 35.6017C20.0914 35.6017 18.5885 35.3216 17.3184 34.7615C16.0561 34.2014 15.0621 33.4204 14.3363 32.4185C13.6184 31.4166 13.2121 30.2529 13.1175 28.9276H16.1469C16.2257 29.8427 16.5334 30.6001 17.0699 31.1996C17.6142 31.7913 18.3006 32.2331 19.1289 32.525C19.9652 32.809 20.8645 32.951 21.827 32.951C22.9472 32.951 23.9531 32.7695 24.8445 32.4066C25.736 32.0359 26.4421 31.5231 26.9627 30.8683C27.4834 30.2056 27.7437 29.4325 27.7437 28.5489C27.7437 27.7442 27.5189 27.0894 27.0692 26.5845C26.6196 26.0796 26.0279 25.6694 25.2942 25.3538C24.5605 25.0383 23.7677 24.7622 22.9157 24.5255L19.9336 23.6735C18.0402 23.1291 16.5413 22.3521 15.4368 21.3423C14.3324 20.3325 13.7801 19.0111 13.7801 17.378C13.7801 16.0211 14.147 14.8378 14.8807 13.828C15.6222 12.8103 16.6163 12.0214 17.8627 11.4613C19.1171 10.8932 20.5174 10.6092 22.0636 10.6092C23.6257 10.6092 25.0141 10.8893 26.229 11.4494C27.444 12.0016 28.4064 12.759 29.1164 13.7215C29.8343 14.6839 30.213 15.7766 30.2525 16.9994H27.4124ZM42.9351 16.9994V19.3661H33.5156V16.9994H42.9351ZM36.2609 12.6446H39.0537V29.9689C39.0537 30.7578 39.1681 31.3495 39.3968 31.744C39.6335 32.1305 39.9333 32.3909 40.2962 32.525C40.667 32.6512 41.0575 32.7143 41.4677 32.7143C41.7754 32.7143 42.0278 32.6985 42.2251 32.667C42.4223 32.6275 42.5801 32.596 42.6984 32.5723L43.2664 35.081C43.0771 35.152 42.8128 35.223 42.4736 35.294C42.1343 35.3729 41.7044 35.4124 41.1837 35.4124C40.3948 35.4124 39.6217 35.2428 38.8643 34.9035C38.1149 34.5643 37.4916 34.0476 36.9946 33.3533C36.5055 32.6591 36.2609 31.7834 36.2609 30.7263V12.6446ZM54.3249 35.5544C52.684 35.5544 51.2442 35.1639 50.0056 34.3829C48.7749 33.6018 47.8125 32.5092 47.1182 31.105C46.4319 29.7007 46.0887 28.0598 46.0887 26.1822C46.0887 24.2888 46.4319 22.6361 47.1182 21.2239C47.8125 19.8118 48.7749 18.7152 50.0056 17.9342C51.2442 17.1532 52.684 16.7627 54.3249 16.7627C55.9658 16.7627 57.4016 17.1532 58.6323 17.9342C59.8709 18.7152 60.8333 19.8118 61.5197 21.2239C62.2139 22.6361 62.561 24.2888 62.561 26.1822C62.561 28.0598 62.2139 29.7007 61.5197 31.105C60.8333 32.5092 59.8709 33.6018 58.6323 34.3829C57.4016 35.1639 55.9658 35.5544 54.3249 35.5544ZM54.3249 33.0457C55.5713 33.0457 56.5969 32.7262 57.4016 32.0871C58.2063 31.4481 58.8019 30.6079 59.1885 29.5666C59.575 28.5252 59.7683 27.3971 59.7683 26.1822C59.7683 24.9673 59.575 23.8352 59.1885 22.786C58.8019 21.7367 58.2063 20.8887 57.4016 20.2418C56.5969 19.5948 55.5713 19.2714 54.3249 19.2714C53.0784 19.2714 52.0528 19.5948 51.2481 20.2418C50.4435 20.8887 49.8478 21.7367 49.4613 22.786C49.0747 23.8352 48.8814 24.9673 48.8814 26.1822C48.8814 27.3971 49.0747 28.5252 49.4613 29.5666C49.8478 30.6079 50.4435 31.4481 51.2481 32.0871C52.0528 32.7262 53.0784 33.0457 54.3249 33.0457ZM66.8241 35.1757V16.9994H69.5221V19.7447H69.7115C70.0428 18.8454 70.6424 18.1157 71.5102 17.5555C72.378 16.9954 73.3562 16.7153 74.4449 16.7153C74.65 16.7153 74.9064 16.7193 75.2141 16.7272C75.5217 16.7351 75.7545 16.7469 75.9122 16.7627V19.6027C75.8176 19.5791 75.6006 19.5436 75.2614 19.4962C74.9301 19.441 74.579 19.4134 74.2082 19.4134C73.3246 19.4134 72.5357 19.5988 71.8415 19.9696C71.1552 20.3325 70.6108 20.8374 70.2085 21.4843C69.814 22.1233 69.6168 22.853 69.6168 23.6735V35.1757H66.8241ZM86.2903 35.5544C84.5389 35.5544 83.0282 35.1678 81.758 34.3947C80.4958 33.6137 79.5215 32.525 78.8351 31.1286C78.1567 29.7244 77.8174 28.0913 77.8174 26.2295C77.8174 24.3677 78.1567 22.7268 78.8351 21.3068C79.5215 19.8789 80.476 18.7665 81.6989 17.9697C82.9295 17.165 84.3653 16.7627 86.0063 16.7627C86.953 16.7627 87.8878 16.9205 88.8108 17.236C89.7338 17.5516 90.574 18.0644 91.3314 18.7744C92.0887 19.4765 92.6922 20.4074 93.1419 21.5671C93.5916 22.7268 93.8164 24.1547 93.8164 25.8509V27.0342H79.8055V24.6202H90.9764C90.9764 23.5946 90.7712 22.6795 90.361 21.8748C89.9587 21.0701 89.3828 20.435 88.6333 19.9696C87.8917 19.5041 87.0161 19.2714 86.0063 19.2714C84.8939 19.2714 83.9314 19.5475 83.1189 20.0997C82.3142 20.6441 81.6949 21.3541 81.261 22.2298C80.8271 23.1055 80.6102 24.0443 80.6102 25.0462V26.6555C80.6102 28.0282 80.8468 29.1919 81.3202 30.1464C81.8014 31.0931 82.468 31.815 83.32 32.312C84.1721 32.8011 85.1621 33.0457 86.2903 33.0457C87.024 33.0457 87.6866 32.9431 88.2783 32.738C88.8779 32.525 89.3946 32.2094 89.8285 31.7913C90.2624 31.3653 90.5977 30.8367 90.8344 30.2056L93.5324 30.963C93.2484 31.8781 92.7711 32.6828 92.1005 33.377C91.43 34.0633 90.6016 34.5998 89.6155 34.9864C88.6294 35.365 87.521 35.5544 86.2903 35.5544ZM100.1 35.365C99.5162 35.365 99.0153 35.156 98.5972 34.7379C98.1791 34.3197 97.97 33.8188 97.97 33.235C97.97 32.6512 98.1791 32.1503 98.5972 31.7321C99.0153 31.314 99.5162 31.105 100.1 31.105C100.684 31.105 101.185 31.314 101.603 31.7321C102.021 32.1503 102.23 32.6512 102.23 33.235C102.23 33.6216 102.131 33.9766 101.934 34.3C101.745 34.6235 101.489 34.8838 101.165 35.081C100.849 35.2704 100.494 35.365 100.1 35.365ZM107.62 35.1757V10.9406H115.809C117.71 10.9406 119.264 11.2837 120.472 11.9701C121.686 12.6486 122.586 13.5676 123.17 14.7273C123.753 15.887 124.045 17.1808 124.045 18.6087C124.045 20.0366 123.753 21.3344 123.17 22.502C122.594 23.6695 121.702 24.6004 120.495 25.2947C119.288 25.981 117.742 26.3242 115.856 26.3242H109.987V23.7208H115.762C117.063 23.7208 118.109 23.496 118.898 23.0463C119.687 22.5966 120.259 21.9892 120.614 21.2239C120.976 20.4508 121.158 19.5791 121.158 18.6087C121.158 17.6384 120.976 16.7706 120.614 16.0053C120.259 15.2401 119.683 14.6405 118.886 14.2066C118.089 13.7648 117.032 13.544 115.714 13.544H110.555V35.1757H107.62ZM144.677 10.9406H147.612V26.9869C147.612 28.6436 147.221 30.1228 146.44 31.4245C145.667 32.7183 144.574 33.7399 143.162 34.4894C141.75 35.2309 140.094 35.6017 138.192 35.6017C136.291 35.6017 134.634 35.2309 133.222 34.4894C131.81 33.7399 130.713 32.7183 129.932 31.4245C129.159 30.1228 128.773 28.6436 128.773 26.9869V10.9406H131.707V26.7502C131.707 27.9336 131.968 28.9867 132.488 29.9098C133.009 30.8249 133.751 31.5467 134.713 32.0753C135.684 32.596 136.843 32.8563 138.192 32.8563C139.541 32.8563 140.701 32.596 141.671 32.0753C142.642 31.5467 143.383 30.8249 143.896 29.9098C144.417 28.9867 144.677 27.9336 144.677 26.7502V10.9406ZM153.472 35.1757V10.9406H161.945C163.633 10.9406 165.026 11.2325 166.122 11.8163C167.219 12.3922 168.036 13.1692 168.572 14.1475C169.108 15.1178 169.377 16.1947 169.377 17.378C169.377 18.4194 169.191 19.2793 168.82 19.9577C168.458 20.6362 167.976 21.1727 167.377 21.5671C166.785 21.9616 166.142 22.2535 165.448 22.4428V22.6795C166.189 22.7268 166.935 22.9871 167.684 23.4605C168.434 23.9338 169.061 24.6123 169.566 25.4959C170.071 26.3794 170.323 27.4602 170.323 28.7382C170.323 29.9532 170.047 31.0458 169.495 32.0161C168.943 32.9865 168.071 33.7557 166.88 34.3237C165.689 34.8917 164.138 35.1757 162.229 35.1757H153.472ZM156.407 32.5723H162.229C164.146 32.5723 165.507 32.2015 166.312 31.46C167.124 30.7105 167.531 29.8033 167.531 28.7382C167.531 27.9178 167.322 27.1604 166.903 26.4662C166.485 25.7641 165.89 25.204 165.117 24.7858C164.343 24.3598 163.428 24.1468 162.371 24.1468H156.407V32.5723ZM156.407 21.5908H161.851C162.734 21.5908 163.531 21.4172 164.241 21.0701C164.959 20.723 165.527 20.2339 165.945 19.6027C166.371 18.9716 166.584 18.23 166.584 17.378C166.584 16.313 166.213 15.4097 165.472 14.6681C164.73 13.9187 163.555 13.544 161.945 13.544H156.407V21.5908ZM175.145 35.1757V10.9406H178.08V32.5723H189.346V35.1757H175.145ZM196.825 10.9406V35.1757H193.89V10.9406H196.825ZM215.962 16.9994C215.82 15.8002 215.245 14.8693 214.235 14.2066C213.225 13.544 211.986 13.2126 210.519 13.2126C209.446 13.2126 208.507 13.3862 207.703 13.7333C206.906 14.0804 206.283 14.5577 205.833 15.1652C205.391 15.7726 205.17 16.4629 205.17 17.236C205.17 17.8829 205.324 18.4391 205.632 18.9046C205.947 19.3621 206.35 19.7447 206.839 20.0524C207.328 20.3522 207.841 20.6007 208.377 20.7979C208.914 20.9873 209.407 21.1411 209.856 21.2594L212.318 21.9221C212.949 22.0878 213.651 22.3166 214.424 22.6085C215.205 22.9004 215.951 23.2988 216.661 23.8037C217.378 24.3007 217.97 24.9397 218.436 25.7207C218.901 26.5017 219.134 27.4602 219.134 28.5962C219.134 29.9058 218.791 31.0892 218.104 32.1463C217.426 33.2034 216.432 34.0436 215.122 34.6669C213.821 35.2901 212.239 35.6017 210.377 35.6017C208.641 35.6017 207.139 35.3216 205.868 34.7615C204.606 34.2014 203.612 33.4204 202.886 32.4185C202.168 31.4166 201.762 30.2529 201.667 28.9276H204.697C204.776 29.8427 205.083 30.6001 205.62 31.1996C206.164 31.7913 206.851 32.2331 207.679 32.525C208.515 32.809 209.415 32.951 210.377 32.951C211.497 32.951 212.503 32.7695 213.395 32.4066C214.286 32.0359 214.992 31.5231 215.513 30.8683C216.033 30.2056 216.294 29.4325 216.294 28.5489C216.294 27.7442 216.069 27.0894 215.619 26.5845C215.17 26.0796 214.578 25.6694 213.844 25.3538C213.111 25.0383 212.318 24.7622 211.466 24.5255L208.484 23.6735C206.59 23.1291 205.091 22.3521 203.987 21.3423C202.882 20.3325 202.33 19.0111 202.33 17.378C202.33 16.0211 202.697 14.8378 203.431 13.828C204.172 12.8103 205.166 12.0214 206.413 11.4613C207.667 10.8932 209.067 10.6092 210.614 10.6092C212.176 10.6092 213.564 10.8893 214.779 11.4494C215.994 12.0016 216.956 12.759 217.666 13.7215C218.384 14.6839 218.763 15.7766 218.802 16.9994H215.962ZM223.959 35.1757V10.9406H226.894V21.7328H239.816V10.9406H242.751V35.1757H239.816V24.3362H226.894V35.1757H223.959Z" fill="white"/>
<path d="M9.561 6.037H0.876999V11.091H9.561V6.037Z" fill="white"/>
<path d="M17.128 0.839001H8.602V5.892H17.128V0.839001Z" fill="white"/>
<path d="M235.718 45.367H227.033V50.42H235.718V45.367Z" fill="white"/>
<path d="M244.243 40.631H235.718V45.684H244.243V40.631Z" fill="white"/>
</svg>
