<svg width="101" height="77" viewBox="0 0 101 77" fill="none" xmlns="http://www.w3.org/2000/svg">
<path d="M48.0366 0H0V76H48.0366V0Z" fill="#213D41"/>
<path d="M99.7683 0H48.0366V76H99.7683V0Z" fill="#7EB527"/>
<path d="M35.1896 27.017C34.9295 24.762 33.8744 23.0114 32.0244 21.7651C30.1743 20.5189 27.9051 19.8958 25.2168 19.8958C23.2511 19.8958 21.5312 20.2222 20.0569 20.875C18.5971 21.5278 17.4553 22.4253 16.6314 23.5677C15.822 24.7101 15.4173 26.0082 15.4173 27.4621C15.4173 28.6787 15.6991 29.7246 16.2628 30.5999C16.841 31.4604 17.5782 32.1799 18.4742 32.7585C19.3703 33.3223 20.3098 33.7896 21.2927 34.1605C22.2755 34.5166 23.1789 34.8059 24.0027 35.0284L28.5122 36.2746C29.6684 36.5861 30.9548 37.0164 32.3713 37.5653C33.8022 38.1143 35.168 38.8635 36.4688 39.813C37.7841 40.7476 38.8681 41.9494 39.7208 43.4181C40.5735 44.8869 41 46.6894 41 48.8257C41 51.2885 40.3713 53.5139 39.1137 55.5019C37.8708 57.4898 36.0496 59.0699 33.6504 60.2419C31.2655 61.414 28.3676 62 24.9566 62C21.7769 62 19.0235 61.4733 16.6964 60.4199C14.3839 59.3666 12.5628 57.8978 11.2331 56.0137C9.91779 54.1295 9.17344 51.9413 9 49.4488H14.5501C14.6947 51.1698 15.2583 52.594 16.2412 53.7216C17.2385 54.8343 18.4959 55.6651 20.0135 56.214C21.5456 56.7481 23.1933 57.0151 24.9566 57.0151C27.009 57.0151 28.8518 56.674 30.485 55.9914C32.1183 55.2942 33.4119 54.3298 34.3658 53.0985C35.3198 51.8523 35.7967 50.3984 35.7967 48.7367C35.7967 47.2235 35.3848 45.9921 34.5609 45.0426C33.7371 44.0931 32.6531 43.3216 31.3089 42.7282C29.9648 42.1348 28.5122 41.6155 26.9512 41.1704L21.4878 39.5681C18.019 38.5445 15.2728 37.0832 13.2493 35.1842C11.2258 33.2852 10.2141 30.8002 10.2141 27.7291C10.2141 25.1774 10.8862 22.952 12.2303 21.0531C13.589 19.1392 15.4101 17.6557 17.6937 16.6023C19.9918 15.5341 22.5574 15 25.3903 15C28.2521 15 30.7958 15.5267 33.0217 16.5801C35.2475 17.6185 37.0108 19.0428 38.3116 20.8528C39.6269 22.6627 40.3206 24.7175 40.393 27.017H35.1896Z" fill="#7FB623"/>
<path d="M57 20.834V16H91V20.834H76.7448V61H71.2552V20.834H57Z" fill="#1E3D41"/>
<path d="M99.711 67H80V76.484H99.711V67Z" fill="#213D41"/>
<path d="M20.0793 0H0V9.483H20.0793V0Z" fill="#7EB527"/>
</svg>


